<svg width="19" height="21" viewBox="0 0 19 21" fill="none" xmlns="http://www.w3.org/2000/svg">
<mask id="path-1-inside-1_31_13" fill="white">
<path d="M18 17V18H0V17L2 15V9C2 5.9 4.03 3.17 7 2.29V2C7 1.46957 7.21071 0.960859 7.58579 0.585786C7.96086 0.210714 8.46957 0 9 0C9.53043 0 10.0391 0.210714 10.4142 0.585786C10.7893 0.960859 11 1.46957 11 2V2.29C13.97 3.17 16 5.9 16 9V15L18 17ZM11 19C11 19.5304 10.7893 20.0391 10.4142 20.4142C10.0391 20.7893 9.53043 21 9 21C8.46957 21 7.96086 20.7893 7.58579 20.4142C7.21071 20.0391 7 19.5304 7 19"/>
</mask>
<path d="M18 17V18H0V17L2 15V9C2 5.9 4.03 3.17 7 2.29V2C7 1.46957 7.21071 0.960859 7.58579 0.585786C7.96086 0.210714 8.46957 0 9 0C9.53043 0 10.0391 0.210714 10.4142 0.585786C10.7893 0.960859 11 1.46957 11 2V2.29C13.97 3.17 16 5.9 16 9V15L18 17ZM11 19C11 19.5304 10.7893 20.0391 10.4142 20.4142C10.0391 20.7893 9.53043 21 9 21C8.46957 21 7.96086 20.7893 7.58579 20.4142C7.21071 20.0391 7 19.5304 7 19" fill="white"/>
<path d="M18 17H19V16.5858L18.7071 16.2929L18 17ZM18 18V19H19V18H18ZM0 18H-1V19H0V18ZM0 17L-0.707107 16.2929L-1 16.5858V17H0ZM2 15L2.70711 15.7071L3 15.4142V15H2ZM7 2.29L7.28409 3.2488L8 3.03668V2.29H7ZM9 0V-1V0ZM11 2.29H10V3.03668L10.7159 3.2488L11 2.29ZM16 15H15V15.4142L15.2929 15.7071L16 15ZM17 17V18H19V17H17ZM18 17H0V19H18V17ZM1 18V17H-1V18H1ZM0.707107 17.7071L2.70711 15.7071L1.29289 14.2929L-0.707107 16.2929L0.707107 17.7071ZM3 15V9H1V15H3ZM3 9C3 6.34076 4.74073 4.00239 7.28409 3.2488L6.71591 1.3312C3.31927 2.33761 1 5.45924 1 9H3ZM8 2.29V2H6V2.29H8ZM8 2C8 1.73478 8.10536 1.48043 8.29289 1.29289L6.87868 -0.12132C6.31607 0.441288 6 1.20435 6 2H8ZM8.29289 1.29289C8.48043 1.10536 8.73478 1 9 1V-1C8.20435 -1 7.44129 -0.68393 6.87868 -0.12132L8.29289 1.29289ZM9 1C9.26522 1 9.51957 1.10536 9.70711 1.29289L11.1213 -0.12132C10.5587 -0.68393 9.79565 -1 9 -1V1ZM9.70711 1.29289C9.89464 1.48043 10 1.73478 10 2H12C12 1.20435 11.6839 0.441288 11.1213 -0.12132L9.70711 1.29289ZM10 2V2.29H12V2H10ZM10.7159 3.2488C13.2593 4.00239 15 6.34076 15 9H17C17 5.45924 14.6807 2.33761 11.2841 1.3312L10.7159 3.2488ZM15 9V15H17V9H15ZM15.2929 15.7071L17.2929 17.7071L18.7071 16.2929L16.7071 14.2929L15.2929 15.7071ZM10 19C10 19.2652 9.89464 19.5196 9.70711 19.7071L11.1213 21.1213C11.6839 20.5587 12 19.7957 12 19H10ZM9.70711 19.7071C9.51957 19.8946 9.26522 20 9 20V22C9.79565 22 10.5587 21.6839 11.1213 21.1213L9.70711 19.7071ZM9 20C8.73478 20 8.48043 19.8946 8.29289 19.7071L6.87868 21.1213C7.44129 21.6839 8.20435 22 9 22V20ZM8.29289 19.7071C8.10536 19.5196 8 19.2652 8 19H6C6 19.7957 6.31607 20.5587 6.87868 21.1213L8.29289 19.7071Z" fill="white" mask="url(#path-1-inside-1_31_13)"/>
<rect x="12" y="1" width="7" height="7" rx="3.5" fill="#EA580C"/>
</svg>
